<svg width="30" height="16" viewBox="0 0 30 16" fill="none" xmlns="http://www.w3.org/2000/svg">
<path d="M9.72536 0.313221C9.33896 -0.0833496 8.68822 -0.106424 8.27176 0.261575L0.328858 7.28197C0.119143 7.46733 0 7.72752 0 8.00001C0 8.2725 0.119143 8.53269 0.328858 8.71805L8.27176 15.7385C8.46982 15.9135 8.72079 16 8.97119 16C9.24736 16 9.52273 15.8947 9.72536 15.6868C10.1118 15.2902 10.0875 14.6704 9.67114 14.3024L2.54058 8.00001L9.67114 1.69765C10.0875 1.3296 10.1118 0.709792 9.72536 0.313221Z" fill="#111111"/>
<path d="M20.2746 0.313221C20.661 -0.0833496 21.3118 -0.106424 21.7282 0.261575L29.6711 7.28197C29.8809 7.46733 30 7.72752 30 8.00001C30 8.2725 29.8809 8.53269 29.6711 8.71805L21.7282 15.7385C21.5302 15.9135 21.2792 16 21.0288 16C20.7526 16 20.4773 15.8947 20.2746 15.6868C19.8882 15.2902 19.9125 14.6704 20.3289 14.3024L27.4594 8.00001L20.3289 1.69765C19.9125 1.3296 19.8882 0.709792 20.2746 0.313221Z" fill="#111111"/>
</svg>
