<svg width="94" height="48" viewBox="0 0 94 48" fill="none" xmlns="http://www.w3.org/2000/svg">
<path d="M6.12634 6.37175V0.546021H0.508789V15.1592H6.12403V8.71933L13.2837 15.1592H20.7269L11.8107 7.20887L20.7269 0.546021H13.3344L6.12634 6.37175Z" fill="#111111"/>
<path d="M59.5531 6.37175V0.546021H53.9355V15.1592H59.5531V8.71933L66.7105 15.1592H74.156L65.2398 7.20887L74.156 0.546021H66.7635L59.5531 6.37175Z" fill="#111111"/>
<path d="M27.8782 0.546021H22.1592V15.1592H27.8782V0.546021Z" fill="#111111"/>
<path d="M52.3055 9.17194C51.8076 12.8571 48.6081 15.7006 44.7355 15.7006H37.5044C33.286 15.7006 29.8652 12.3271 29.8652 8.1642V7.53864C29.8652 3.37351 33.286 0 37.5044 0H44.7355C46.8447 0 48.7533 0.843945 50.1364 2.20654C51.2728 3.33029 52.0542 4.80207 52.2916 6.44902H46.3214C45.7566 5.05002 44.3713 4.06049 42.7531 4.06049H39.4844C38.4241 4.06049 37.4629 4.4836 36.769 5.17059C36.0729 5.8553 35.6441 6.80388 35.6441 7.85029C35.6441 9.94081 37.3637 11.6378 39.4844 11.6378H42.7531C43.8134 11.6378 44.7724 11.2124 45.4685 10.5277C45.8535 10.1455 46.1577 9.68376 46.3537 9.16966H52.3055V9.17194Z" fill="#111111"/>
<path d="M39.7145 20.762C38.3337 19.3994 36.4228 18.5555 34.3136 18.5555H27.0825C22.8641 18.5555 19.4434 21.929 19.4434 26.0941V26.7197C19.4434 30.8825 22.8641 34.2561 27.0825 34.2561H34.3136C38.532 34.2561 41.9504 30.8825 41.9504 26.7197V26.0941C41.9504 24.0127 41.0952 22.1269 39.7145 20.762ZM35.0466 29.0832C34.3528 29.7702 33.3916 30.1933 32.3312 30.1933H29.0626C26.9419 30.1933 25.2223 28.4963 25.2223 26.4035C25.2223 25.3571 25.6533 24.4085 26.3472 23.7238C27.0433 23.0368 28.0022 22.6137 29.0626 22.6137H32.3312C34.4496 22.6137 36.1692 24.3107 36.1692 26.4035C36.1715 27.4522 35.7405 28.3985 35.0466 29.0832Z" fill="#111111"/>
<path d="M86.9904 5.12049H93.2096C93.2096 5.12049 93.3018 0.222874 86.0707 0.343438C82.4217 0.404857 80.6537 0.402581 79.7985 0.386657C78.6298 0.363909 77.4657 0.580015 76.4077 1.06682C75.1053 1.66509 73.7891 2.72969 73.7268 4.60411C73.7268 4.60411 73.4825 8.23239 77.4334 8.98762C81.3867 9.74285 85.0311 9.29017 86.3173 9.71328C87.6036 10.1364 87.6958 11.7697 85.552 12.0404C83.4083 12.3111 79.8838 12.4021 79.6694 10.1364H73.5424C73.5424 10.1364 72.7149 14.943 79.7916 15.398C86.8683 15.8506 89.2264 15.1568 89.2264 15.1568C89.2264 15.1568 93.7605 14.4312 93.6683 10.7119C93.5761 6.99491 90.7892 6.51038 90.7892 6.51038C90.7892 6.51038 88.491 5.63459 82.4263 5.78472C82.4263 5.78472 79.6394 5.87572 79.8515 4.45397C79.8515 4.45397 79.8815 3.33478 84.0791 3.51676C84.0791 3.51904 86.6539 3.42805 86.9904 5.12049Z" fill="#111111"/>
<path d="M0.203125 18.8465V22.8979H6.69661V33.6008H12.3948V22.9593H18.8284V18.8465H0.203125Z" fill="#111111"/>
<path d="M41.0869 18.908L47.0341 33.4803H53.9356L56.9368 24.231L59.9404 33.4803H66.5584L72.441 18.908H66.4984L63.4349 28.2187L60.3115 18.908H53.9402L50.8767 28.6418L47.5066 18.908H41.0869Z" fill="#111111"/>
<path d="M73.1758 33.478V18.9058H79.4272L88.0045 27.2497V18.9058H93.6728V33.478H88.1866L78.7518 24.7724V33.478H73.1758Z" fill="#111111"/>
<path d="M1.23554 48C0.896687 48 0.606245 47.8817 0.359598 47.6451C0.119867 47.4017 0 47.1106 0 46.7716V46.3348H1.10645V46.5805C1.10645 46.7329 1.12259 46.8239 1.15255 46.8535C1.18252 46.8831 1.27473 46.899 1.42917 46.899H5.1911C5.34555 46.899 5.43775 46.8831 5.46772 46.8535C5.5046 46.8239 5.52304 46.7329 5.52304 46.5805V45.5978C5.52304 45.4454 5.5046 45.3544 5.46772 45.3248C5.43775 45.2953 5.34555 45.2793 5.1911 45.2793H1.23554C0.896687 45.2793 0.606245 45.1588 0.359598 44.9154C0.119867 44.672 0 44.3854 0 44.051V42.677C0 42.3381 0.119867 42.0492 0.359598 41.8126C0.606245 41.5692 0.896687 41.4486 1.23554 41.4486H5.39395C5.7328 41.4486 6.02325 41.5692 6.2699 41.8126C6.51654 42.0492 6.63871 42.3381 6.63871 42.677V43.1137H5.52304V42.8681C5.52304 42.7157 5.5046 42.6247 5.46772 42.5951C5.43775 42.5655 5.34555 42.5496 5.1911 42.5496H1.42917C1.27473 42.5496 1.18252 42.5655 1.15255 42.5951C1.12259 42.6247 1.10645 42.7157 1.10645 42.8681V43.8508C1.10645 44.0032 1.12259 44.0942 1.15255 44.1238C1.18252 44.1533 1.27473 44.1693 1.42917 44.1693H5.39395C5.7328 44.1693 6.02325 44.2898 6.2699 44.5332C6.51654 44.7766 6.63871 45.0632 6.63871 45.3976V46.7716C6.63871 47.1106 6.51654 47.4017 6.2699 47.6451C6.02325 47.8817 5.7328 48 5.39395 48H1.23554ZM15.4926 48V41.4486H21.5873V42.5496H16.6083V44.1693H20.6192V45.2793H16.6083V46.899H21.5873V48H15.4926ZM30.3606 48V41.4577H35.7545C36.098 41.4577 36.3907 41.5783 36.6305 41.8217C36.8771 42.0651 36.9993 42.3517 36.9993 42.6861V44.4877C36.9993 44.8153 36.8771 45.0996 36.6305 45.343C36.3907 45.5864 36.098 45.707 35.7545 45.707H35.2382L36.9808 47.7452V48H35.7361L33.7906 45.707H31.467V48H30.3606ZM31.799 44.606H35.5517C35.7061 44.606 35.7983 44.5901 35.8283 44.5605C35.8583 44.5309 35.8744 44.44 35.8744 44.2875V42.8772C35.8744 42.7248 35.8583 42.6338 35.8283 42.6042C35.7983 42.5678 35.7061 42.5496 35.5517 42.5496H31.799C31.6445 42.5496 31.55 42.5678 31.5131 42.6042C31.4832 42.6338 31.467 42.7248 31.467 42.8772V44.2875C31.467 44.44 31.4832 44.5309 31.5131 44.5605C31.55 44.5901 31.6468 44.606 31.799 44.606ZM49.2256 48L45.3807 41.4486H46.6715L49.7419 46.717L52.8215 41.4486H54.1032L50.2583 48H49.2256ZM62.6206 48V41.4486H63.7178V48H62.6206ZM73.7127 48C73.3693 48 73.0742 47.8817 72.8276 47.6451C72.5879 47.4017 72.468 47.1106 72.468 46.7716V42.677C72.468 42.3381 72.5879 42.0492 72.8276 41.8126C73.0742 41.5692 73.3693 41.4486 73.7127 41.4486H79.0883V42.5496H73.9064C73.7519 42.5496 73.6574 42.5655 73.6205 42.5951C73.5906 42.6247 73.5744 42.7157 73.5744 42.8681V46.5805C73.5744 46.7329 73.5906 46.8239 73.6205 46.8535C73.6574 46.8831 73.7519 46.899 73.9064 46.899H79.0883V48H73.7127ZM87.9053 48V41.4486H94V42.5496H89.021V44.1693H93.0319V45.2793H89.021V46.899H94V48H87.9053Z" fill="#111111"/>
</svg>
