<svg width="14" height="14" viewBox="0 0 14 14" fill="none" xmlns="http://www.w3.org/2000/svg">
<path fill-rule="evenodd" clip-rule="evenodd" d="M0.997992 10.402C0.379517 9.352 0.0562246 8.162 0.0562246 6.93C0.0562246 3.108 3.19076 0 7.02811 0C8.89759 0 10.6406 0.728001 11.9618 2.03C13.2691 3.346 14 5.082 14 6.944C14 10.766 10.8655 13.874 7.02811 13.874C5.86145 13.874 4.70884 13.594 3.69679 13.034L0 14L0.997992 10.402ZM4.81798 3.54105C4.9465 3.54633 5.08869 3.55238 5.22379 3.85388C5.31611 4.05999 5.47146 4.44425 5.59526 4.75047C5.68649 4.97612 5.76058 5.15939 5.77971 5.1978C5.8248 5.28834 5.85484 5.39407 5.79473 5.51497C5.78574 5.53304 5.77741 5.5501 5.76946 5.56639C5.72428 5.65897 5.69109 5.72699 5.61458 5.81689C5.5846 5.85204 5.5536 5.88989 5.5226 5.92775C5.46035 6.00377 5.39809 6.0798 5.34404 6.13395C5.25358 6.22422 5.15963 6.3223 5.26483 6.50338C5.37006 6.68463 5.73199 7.27728 6.26809 7.75715C6.84399 8.27268 7.3443 8.49074 7.59836 8.60147C7.64826 8.62322 7.68866 8.64083 7.71827 8.65574C7.89863 8.74628 8.00383 8.7312 8.10902 8.61019C8.21426 8.48946 8.55965 8.08175 8.6799 7.90067C8.80011 7.71942 8.92037 7.74961 9.08567 7.80996C9.25101 7.8703 10.1376 8.30838 10.3179 8.39892C10.3531 8.41657 10.386 8.4325 10.4165 8.44727C10.5423 8.50826 10.6273 8.54944 10.6636 8.61019C10.7087 8.68593 10.7087 9.04827 10.5584 9.47098C10.4081 9.89377 9.67184 10.3015 9.34119 10.3317C9.30937 10.3346 9.27774 10.3383 9.24521 10.3421C8.93964 10.3782 8.55395 10.4238 7.17719 9.87869C5.48313 9.20795 4.36613 7.5458 4.13537 7.20241C4.11644 7.17425 4.10348 7.15496 4.09664 7.14581L4.09464 7.14312C3.9974 7.01265 3.36029 6.1578 3.36029 5.27327C3.36029 4.43947 3.76851 4.0024 3.95633 3.80131C3.96917 3.78756 3.98097 3.77492 3.99155 3.76334C4.15675 3.58215 4.35216 3.53681 4.47238 3.53681C4.47897 3.53681 4.48557 3.53681 4.49216 3.53681C4.60569 3.53679 4.71865 3.53678 4.81798 3.54105Z" fill="#111111"/>
</svg>
